<mxfile host="app.diagrams.net" agent="Mozilla/5.0 (Macintosh; Intel Mac OS X 10_15_7) AppleWebKit/537.36 (KHTML, like Gecko) Chrome/139.0.0.0 Safari/537.36" version="28.1.0">
  <diagram name="Page-1" id="qUjjeIQ0DExj5NyA2KU4">
    <mxGraphModel dx="984" dy="536" grid="1" gridSize="10" guides="1" tooltips="1" connect="1" arrows="1" fold="1" page="1" pageScale="1" pageWidth="827" pageHeight="1169" math="0" shadow="0">
      <root>
        <mxCell id="0" />
        <mxCell id="1" parent="0" />
        <mxCell id="TD6bPUp1XabTYKKyts6r-2" value="" style="rounded=0;whiteSpace=wrap;html=1;" parent="1" vertex="1">
          <mxGeometry x="10" y="260" width="70" height="380" as="geometry" />
        </mxCell>
        <mxCell id="TD6bPUp1XabTYKKyts6r-3" value="" style="rounded=0;whiteSpace=wrap;html=1;strokeOpacity=100;" parent="1" vertex="1">
          <mxGeometry x="410" y="260" width="380" height="380" as="geometry" />
        </mxCell>
        <mxCell id="TD6bPUp1XabTYKKyts6r-4" style="edgeStyle=orthogonalEdgeStyle;rounded=0;orthogonalLoop=1;jettySize=auto;html=1;exitX=1.008;exitY=0.097;exitDx=0;exitDy=0;exitPerimeter=0;" parent="1" source="TD6bPUp1XabTYKKyts6r-2" target="TD6bPUp1XabTYKKyts6r-10" edge="1">
          <mxGeometry relative="1" as="geometry">
            <mxPoint x="140" y="300" as="sourcePoint" />
            <Array as="points">
              <mxPoint x="81" y="300" />
            </Array>
          </mxGeometry>
        </mxCell>
        <mxCell id="TD6bPUp1XabTYKKyts6r-8" value="&lt;b&gt;createEmptyCart&lt;/b&gt;" style="text;html=1;align=center;verticalAlign=middle;resizable=0;points=[];autosize=1;strokeColor=none;fillColor=none;" parent="1" vertex="1">
          <mxGeometry x="220" y="280" width="120" height="30" as="geometry" />
        </mxCell>
        <mxCell id="TD6bPUp1XabTYKKyts6r-11" style="edgeStyle=orthogonalEdgeStyle;rounded=0;orthogonalLoop=1;jettySize=auto;html=1;exitX=0;exitY=0.75;exitDx=0;exitDy=0;entryX=1.034;entryY=0.131;entryDx=0;entryDy=0;entryPerimeter=0;" parent="1" target="TD6bPUp1XabTYKKyts6r-2" edge="1">
          <mxGeometry relative="1" as="geometry">
            <Array as="points">
              <mxPoint x="427" y="310" />
            </Array>
            <mxPoint x="451.83315789473687" y="310.00368421052633" as="sourcePoint" />
            <mxPoint x="90" y="310" as="targetPoint" />
          </mxGeometry>
        </mxCell>
        <mxCell id="TD6bPUp1XabTYKKyts6r-10" value="&lt;span style=&quot;text-wrap-mode: nowrap;&quot;&gt;createEmptyCart( )&lt;/span&gt;" style="shape=parallelogram;perimeter=parallelogramPerimeter;whiteSpace=wrap;html=1;fixedSize=1;" parent="1" vertex="1">
          <mxGeometry x="420" y="280" width="200" height="40" as="geometry" />
        </mxCell>
        <mxCell id="TD6bPUp1XabTYKKyts6r-12" value="return value:&amp;nbsp; creatEmptyCart // cartId&amp;nbsp;" style="text;html=1;align=center;verticalAlign=middle;resizable=0;points=[];autosize=1;strokeColor=none;fillColor=none;" parent="1" vertex="1">
          <mxGeometry x="150" y="300" width="230" height="30" as="geometry" />
        </mxCell>
        <mxCell id="TD6bPUp1XabTYKKyts6r-13" value="FE" style="text;html=1;align=center;verticalAlign=middle;resizable=0;points=[];autosize=1;strokeColor=none;fillColor=none;" parent="1" vertex="1">
          <mxGeometry x="15" y="230" width="40" height="30" as="geometry" />
        </mxCell>
        <mxCell id="TD6bPUp1XabTYKKyts6r-14" value="BE" style="text;html=1;align=center;verticalAlign=middle;resizable=0;points=[];autosize=1;strokeColor=none;fillColor=none;" parent="1" vertex="1">
          <mxGeometry x="560" y="228" width="40" height="30" as="geometry" />
        </mxCell>
        <mxCell id="TD6bPUp1XabTYKKyts6r-15" value="db" style="shape=cylinder3;whiteSpace=wrap;html=1;boundedLbl=1;backgroundOutline=1;size=15;" parent="1" vertex="1">
          <mxGeometry x="730" y="260" width="60" height="380" as="geometry" />
        </mxCell>
        <mxCell id="TD6bPUp1XabTYKKyts6r-19" value="cartId" style="text;html=1;align=center;verticalAlign=middle;whiteSpace=wrap;rounded=0;" parent="1" vertex="1">
          <mxGeometry x="640" y="280" width="60" height="30" as="geometry" />
        </mxCell>
        <mxCell id="TD6bPUp1XabTYKKyts6r-42" style="edgeStyle=orthogonalEdgeStyle;rounded=0;orthogonalLoop=1;jettySize=auto;html=1;entryX=1;entryY=0.25;entryDx=0;entryDy=0;" parent="1" source="TD6bPUp1XabTYKKyts6r-20" target="TD6bPUp1XabTYKKyts6r-2" edge="1">
          <mxGeometry relative="1" as="geometry" />
        </mxCell>
        <mxCell id="TD6bPUp1XabTYKKyts6r-20" value="&lt;div style=&quot;&quot;&gt;&lt;span style=&quot;background-color: transparent; font-variant-ligatures: none; white-space-collapse: preserve;&quot;&gt;&lt;font face=&quot;Monaco, Menlo, Consolas, Courier New, monospace&quot; color=&quot;#1d1c1d&quot;&gt;expressInit(productCartParams, cartId,)&lt;/font&gt;&lt;/span&gt;&lt;/div&gt;" style="shape=parallelogram;perimeter=parallelogramPerimeter;whiteSpace=wrap;html=1;fixedSize=1;align=center;" parent="1" vertex="1">
          <mxGeometry x="430" y="330" width="230" height="50" as="geometry" />
        </mxCell>
        <mxCell id="TD6bPUp1XabTYKKyts6r-22" value="" style="shape=cylinder3;whiteSpace=wrap;html=1;boundedLbl=1;backgroundOutline=1;size=15;" parent="1" vertex="1">
          <mxGeometry x="10" y="260" width="40" height="380" as="geometry" />
        </mxCell>
        <mxCell id="TD6bPUp1XabTYKKyts6r-23" value="&lt;b&gt;cartId&lt;/b&gt;" style="text;html=1;align=center;verticalAlign=middle;whiteSpace=wrap;rounded=0;" parent="1" vertex="1">
          <mxGeometry y="310" width="60" height="30" as="geometry" />
        </mxCell>
        <mxCell id="TD6bPUp1XabTYKKyts6r-24" value="Browser Memory" style="text;html=1;align=center;verticalAlign=middle;whiteSpace=wrap;rounded=0;" parent="1" vertex="1">
          <mxGeometry y="600" width="60" height="30" as="geometry" />
        </mxCell>
        <mxCell id="TD6bPUp1XabTYKKyts6r-25" style="edgeStyle=orthogonalEdgeStyle;rounded=0;orthogonalLoop=1;jettySize=auto;html=1;entryX=0.05;entryY=0.104;entryDx=0;entryDy=0;entryPerimeter=0;" parent="1" source="TD6bPUp1XabTYKKyts6r-10" target="TD6bPUp1XabTYKKyts6r-15" edge="1">
          <mxGeometry relative="1" as="geometry" />
        </mxCell>
        <mxCell id="TD6bPUp1XabTYKKyts6r-31" value="" style="edgeStyle=none;orthogonalLoop=1;jettySize=auto;html=1;rounded=0;exitX=0.983;exitY=0.218;exitDx=0;exitDy=0;entryX=0;entryY=0.25;entryDx=0;entryDy=0;exitPerimeter=0;" parent="1" source="TD6bPUp1XabTYKKyts6r-2" target="TD6bPUp1XabTYKKyts6r-20" edge="1">
          <mxGeometry width="100" relative="1" as="geometry">
            <mxPoint x="80.00000000000023" y="373.99" as="sourcePoint" />
            <mxPoint x="429.5" y="370" as="targetPoint" />
            <Array as="points" />
          </mxGeometry>
        </mxCell>
        <mxCell id="TD6bPUp1XabTYKKyts6r-40" value="return value: methods_response&lt;br&gt;&lt;div&gt;// hard_code ATM.&lt;/div&gt;" style="text;html=1;align=center;verticalAlign=middle;resizable=0;points=[];autosize=1;strokeColor=none;fillColor=none;" parent="1" vertex="1">
          <mxGeometry x="145" y="350" width="200" height="40" as="geometry" />
        </mxCell>
        <mxCell id="TD6bPUp1XabTYKKyts6r-41" value="&lt;font style=&quot;font-size: 8px;&quot;&gt;&lt;b style=&quot;&quot;&gt;expressInit(&lt;/b&gt;&lt;font style=&quot;font-weight: bold; color: rgb(102, 204, 0);&quot;&gt;productCartParams&lt;/font&gt;&lt;b style=&quot;&quot;&gt;,&amp;nbsp;&lt;font style=&quot;color: rgb(255, 51, 51);&quot;&gt;adyenMaskedQuoteId&lt;/font&gt;,&amp;nbsp;&lt;/b&gt;&lt;b style=&quot;color: rgb(255, 128, 0);&quot;&gt;adyenCartId&lt;/b&gt;&lt;b style=&quot;&quot;&gt;)&lt;/b&gt;&lt;/font&gt;" style="text;html=1;align=center;verticalAlign=middle;resizable=0;points=[];autosize=1;strokeColor=none;fillColor=none;" parent="1" vertex="1">
          <mxGeometry x="115" y="320" width="280" height="30" as="geometry" />
        </mxCell>
        <mxCell id="TD6bPUp1XabTYKKyts6r-43" style="edgeStyle=orthogonalEdgeStyle;rounded=0;orthogonalLoop=1;jettySize=auto;html=1;entryX=0.05;entryY=0.251;entryDx=0;entryDy=0;entryPerimeter=0;" parent="1" source="TD6bPUp1XabTYKKyts6r-20" target="TD6bPUp1XabTYKKyts6r-15" edge="1">
          <mxGeometry relative="1" as="geometry" />
        </mxCell>
        <mxCell id="TD6bPUp1XabTYKKyts6r-46" value="expressActivate&lt;div&gt;(adyenMaskedQuoteId,&lt;div&gt;adyenCartId)&lt;/div&gt;&lt;/div&gt;" style="shape=parallelogram;perimeter=parallelogramPerimeter;whiteSpace=wrap;html=1;fixedSize=1;" parent="1" vertex="1">
          <mxGeometry x="414" y="390" width="216" height="40" as="geometry" />
        </mxCell>
        <mxCell id="TD6bPUp1XabTYKKyts6r-47" value="???" style="text;html=1;align=center;verticalAlign=middle;whiteSpace=wrap;rounded=0;" parent="1" vertex="1">
          <mxGeometry x="670" y="330" width="60" height="30" as="geometry" />
        </mxCell>
        <mxCell id="TD6bPUp1XabTYKKyts6r-51" value="&lt;b&gt;expressActivate&lt;/b&gt;" style="text;html=1;align=center;verticalAlign=middle;resizable=0;points=[];autosize=1;strokeColor=none;fillColor=none;" parent="1" vertex="1">
          <mxGeometry x="160" y="380" width="120" height="30" as="geometry" />
        </mxCell>
        <mxCell id="TD6bPUp1XabTYKKyts6r-50" style="edgeStyle=orthogonalEdgeStyle;rounded=0;orthogonalLoop=1;jettySize=auto;html=1;entryX=0;entryY=0.25;entryDx=0;entryDy=0;exitX=0.983;exitY=0.371;exitDx=0;exitDy=0;exitPerimeter=0;" parent="1" source="TD6bPUp1XabTYKKyts6r-2" target="TD6bPUp1XabTYKKyts6r-46" edge="1">
          <mxGeometry relative="1" as="geometry">
            <mxPoint x="82" y="401" as="sourcePoint" />
            <mxPoint x="428.09440677966086" y="408.0011864406781" as="targetPoint" />
          </mxGeometry>
        </mxCell>
        <mxCell id="vXaa6i3TRBwajXftBTqB-1" style="edgeStyle=orthogonalEdgeStyle;rounded=0;orthogonalLoop=1;jettySize=auto;html=1;exitX=0;exitY=0.5;exitDx=0;exitDy=0;entryX=0.96;entryY=0.393;entryDx=0;entryDy=0;entryPerimeter=0;" parent="1" source="TD6bPUp1XabTYKKyts6r-46" target="TD6bPUp1XabTYKKyts6r-2" edge="1">
          <mxGeometry relative="1" as="geometry" />
        </mxCell>
        <mxCell id="vXaa6i3TRBwajXftBTqB-2" value="No sure what is useful" style="text;html=1;align=center;verticalAlign=middle;resizable=0;points=[];autosize=1;strokeColor=none;fillColor=none;" parent="1" vertex="1">
          <mxGeometry x="135" y="400" width="140" height="30" as="geometry" />
        </mxCell>
        <mxCell id="vXaa6i3TRBwajXftBTqB-4" style="edgeStyle=orthogonalEdgeStyle;rounded=0;orthogonalLoop=1;jettySize=auto;html=1;exitX=1;exitY=0.5;exitDx=0;exitDy=0;entryX=0.036;entryY=0.393;entryDx=0;entryDy=0;entryPerimeter=0;" parent="1" source="TD6bPUp1XabTYKKyts6r-46" target="TD6bPUp1XabTYKKyts6r-15" edge="1">
          <mxGeometry relative="1" as="geometry" />
        </mxCell>
        <mxCell id="vXaa6i3TRBwajXftBTqB-5" value="???" style="text;html=1;align=center;verticalAlign=middle;whiteSpace=wrap;rounded=0;" parent="1" vertex="1">
          <mxGeometry x="660" y="390" width="60" height="30" as="geometry" />
        </mxCell>
        <mxCell id="vXaa6i3TRBwajXftBTqB-7" value="" style="shape=parallelogram;perimeter=parallelogramPerimeter;whiteSpace=wrap;html=1;fixedSize=1;align=right;" parent="1" vertex="1">
          <mxGeometry x="414" y="460" width="216" height="80" as="geometry" />
        </mxCell>
        <mxCell id="vXaa6i3TRBwajXftBTqB-8" value="adyenExpressInitPayments (stateData, adyenCartId, adyenMaskedQuoteId)" style="text;html=1;align=center;verticalAlign=middle;whiteSpace=wrap;rounded=0;" parent="1" vertex="1">
          <mxGeometry x="492" y="480" width="60" height="30" as="geometry" />
        </mxCell>
        <mxCell id="vXaa6i3TRBwajXftBTqB-10" style="edgeStyle=orthogonalEdgeStyle;rounded=0;orthogonalLoop=1;jettySize=auto;html=1;exitX=1;exitY=0.5;exitDx=0;exitDy=0;entryX=0.022;entryY=0.632;entryDx=0;entryDy=0;entryPerimeter=0;" parent="1" source="vXaa6i3TRBwajXftBTqB-7" target="TD6bPUp1XabTYKKyts6r-15" edge="1">
          <mxGeometry relative="1" as="geometry" />
        </mxCell>
        <mxCell id="vXaa6i3TRBwajXftBTqB-13" value="Create Order" style="text;html=1;align=center;verticalAlign=middle;whiteSpace=wrap;rounded=0;" parent="1" vertex="1">
          <mxGeometry x="650" y="470" width="60" height="30" as="geometry" />
        </mxCell>
        <mxCell id="WAmzu_I8zzxq4xvVD6ME-1" value="" style="edgeStyle=orthogonalEdgeStyle;rounded=0;orthogonalLoop=1;jettySize=auto;html=1;" edge="1" parent="1" source="vXaa6i3TRBwajXftBTqB-16" target="vXaa6i3TRBwajXftBTqB-18">
          <mxGeometry relative="1" as="geometry" />
        </mxCell>
        <mxCell id="vXaa6i3TRBwajXftBTqB-16" value="&lt;b&gt;adyenExpressInitPayments (&lt;font style=&quot;color: rgb(102, 204, 0);&quot;&gt;stateData&lt;/font&gt;, adyenCartId, adyenMaskedQuoteId)&lt;/b&gt;" style="text;html=1;align=center;verticalAlign=middle;whiteSpace=wrap;rounded=0;" parent="1" vertex="1">
          <mxGeometry x="210" y="450" width="60" height="30" as="geometry" />
        </mxCell>
        <mxCell id="vXaa6i3TRBwajXftBTqB-17" style="edgeStyle=orthogonalEdgeStyle;rounded=0;orthogonalLoop=1;jettySize=auto;html=1;exitX=0;exitY=0.5;exitDx=0;exitDy=0;entryX=0.96;entryY=0.633;entryDx=0;entryDy=0;entryPerimeter=0;" parent="1" source="vXaa6i3TRBwajXftBTqB-7" target="TD6bPUp1XabTYKKyts6r-2" edge="1">
          <mxGeometry relative="1" as="geometry" />
        </mxCell>
        <mxCell id="vXaa6i3TRBwajXftBTqB-18" value="isFinal, resultCode, additionalData, action" style="text;html=1;align=center;verticalAlign=middle;resizable=0;points=[];autosize=1;strokeColor=none;fillColor=none;" parent="1" vertex="1">
          <mxGeometry x="120" y="498" width="240" height="30" as="geometry" />
        </mxCell>
        <mxCell id="vXaa6i3TRBwajXftBTqB-20" style="edgeStyle=orthogonalEdgeStyle;rounded=0;orthogonalLoop=1;jettySize=auto;html=1;entryX=0;entryY=0.25;entryDx=0;entryDy=0;exitX=1.006;exitY=0.589;exitDx=0;exitDy=0;exitPerimeter=0;" parent="1" source="TD6bPUp1XabTYKKyts6r-2" target="vXaa6i3TRBwajXftBTqB-7" edge="1">
          <mxGeometry relative="1" as="geometry" />
        </mxCell>
      </root>
    </mxGraphModel>
  </diagram>
</mxfile>
